<?xml version="1.0" encoding="UTF-8"?>
<svg id="Layer_1" data-name="Layer 1" xmlns="http://www.w3.org/2000/svg" viewBox="0 0 1437.16 299.42">
  <defs>
    <style>
      .cls-1 {
        fill: #fff;
        stroke-width: 0px;
      }
    </style>
  </defs>
  <path class="cls-1" d="m144.42,0c1.85.15,3.73.3,5.45,1.06,1.28.14,2.57.29,3.86.43,2.98,1.06,6.12,1.51,9.14,2.46,1.33.17,2.67.34,4.01.53,1.3.49,2.61.96,3.94,1.4,2.51.59,5.01,1.27,7.59,1.57l-.09.44c3.81.64,7.49,1.86,11.19,2.96,3.46.89,6.98,1.68,10.27,3.11,1.16.12,2.33.24,3.5.35l-.05.8c.72.08,2.17.25,2.9.34,1.23.48,2.49.93,3.75,1.4,2.37.57,4.69,1.34,7.02,2.09,2.67.88,5.33,1.82,8.06,2.53,1.9.66,3.83,1.27,5.76,1.87,1.37.51,2.77.99,4.15,1.52.97.34,1.94.68,2.91,1.04,1.36.49,2.72.99,4.09,1.47,1.26.55,2.53,1.09,3.8,1.64,1.08.4,2.15.83,3.22,1.24,1.63.76,3.26,1.51,4.9,2.23,1.72.91,3.43,1.83,5.11,2.81.23-.02.7-.05.93-.06,2.2,1.6,4.58,2.92,6.96,4.24,1.2.8,2.4,1.61,3.59,2.43,4.81,2.92,8.74,6.96,12.93,10.66-.03.24-.09.7-.12.93l.66-.43c2.75,3.43,5.52,6.85,7.89,10.57.63,1.19,1.26,2.39,1.88,3.6l.37-.15c.37,1.15.77,2.29,1.2,3.42.61,1.31,1.21,2.61,1.83,3.92,1.25,4.23,2.92,8.36,3.47,12.76.16.02.49.05.66.07.11,2.33.24,4.67.31,7.01l.69-.09c.6,10.8,2,21.69.53,32.47-.18,2.23-.31,4.47-.42,6.71l-.66-.21c-.14,1.87-.29,3.74-.48,5.62-.78,1.91-1.39,3.9-1.96,5.89-.52,1.37-.99,2.76-1.49,4.14-.69,1.37-1.43,2.72-2.22,4.04l-.09.75c-.36.61-1.1,1.81-1.47,2.41l-.23.18c-.8,1.23-1.65,2.44-2.48,3.65-.29.34-.86,1.03-1.15,1.37l-.32-.02c-.25.37-.75,1.1-1.01,1.46-1.2,1.15-2.41,2.29-3.63,3.42-1.42.93-2.83,1.88-4.24,2.8-.5.33-1.5,1-2,1.33-.25.02-.76.05-1.01.07-8.54,4.68-18.69,3.18-27.98,2.65-3.62-1.23-7.34-2.12-10.88-3.58-1.25-.45-2.5-.92-3.73-1.36l-.03-.97c-.46.12-1.38.37-1.83.5l.05-1.33-.93.07c.15-24.85.03-49.69.07-74.54-.05-9.84.16-19.68-.32-29.52-.16.01-.5.01-.67.01-.6-8.12-8.74-14.68-16.83-13.04-.52.34-1.54,1.03-2.06,1.37-3.45,3.49-4.9,8.38-4.53,13.22-.07,72.3,0,144.6-.03,216.9.06,6.21-.21,12.44.35,18.62-.65.05-1.96.13-2.62.17.59-.45,1.17-.93,1.73-1.42-3.06.72-5.89-.72-8.7-1.68-2.68-.86-5.35-1.78-8.07-2.49-1.32-.49-2.63-.96-3.93-1.47-.65-.06-1.94-.19-2.58-.25l.05-.61c-2.4-.46-4.71-1.25-7.01-2.02-2.01-.65-4.04-1.26-6.11-1.65l.1-.58c-.65-.06-1.96-.2-2.61-.27-1.27-.55-2.54-1.05-3.82-1.55-1.03-.26-2.04-.54-3.05-.83-1.33-.43-2.65-.83-3.96-1.28-3.02-.97-6.04-1.88-9.03-2.9-1.49-.43-2.95-.88-4.41-1.34.02-93.03.09-186.06-.03-279.08Z"/>
  <path class="cls-1" d="m727.88,70.92c12.17-.22,25.09-.04,35.94,6.22.37,0,1.11-.04,1.48-.05l-.11.74c3.27,1.7,6.09,4.11,8.85,6.53.26.29.78.87,1.04,1.16,1.36,1.61,2.72,3.22,4.08,4.83.45.83.9,1.67,1.36,2.5.61.92,1.23,1.84,1.86,2.76,0,.25-.04.75-.05,1,1,1.91,1.87,3.9,2.83,5.84.04.7.1,2.1.14,2.8l.86-.09c.12,1.84.26,3.67.45,5.51,1.56,6.02.72,12.34.59,18.48h-.65c-.1,1.81-.22,3.62-.33,5.44-.89,2.37-1.58,4.82-2.69,7.1-.06.3-.16.9-.21,1.19-1.24,2.23-2.42,4.49-3.64,6.73-2.53,3.43-5.2,6.81-8.63,9.4-1.42.98-2.8,2.02-4.15,3.09h-.26c-2.91,1.84-6.03,3.36-9.3,4.4l-.04.37c-2.57.31-5.03,1.07-7.43,1.96-3,.2-6.02.38-8.93,1.16-55.52.37-111.05-.17-166.57.27,0,.18.02.53.03.71-2.03.25-4.02.87-5.62,2.18-.34-.04-1.01-.12-1.34-.16v1.18s-.81-.12-.81-.12c-3.4,2.89-6.04,6.48-8.09,10.42-.58,1.7-1.16,3.4-1.64,5.14-1.74,6.87-1.14,14.01-1.23,21.03-.07,14.83.12,29.67-.12,44.5-13.07.17-26.13.05-39.2.06-.23-17.51-.03-35.01-.15-52.52.15-4.36-.21-8.79.72-13.08.25-1.34.48-2.67.7-4.01.42-1.34.84-2.69,1.27-4.03.82-2.63,1.94-5.15,3.17-7.61,1.6-3.06,3.54-5.92,5.61-8.68h.77s-.25-.85-.25-.85c.55-.39,1.64-1.17,2.19-1.56l-.13-.91.8.29c.24-.33.72-.98.96-1.31,1.95-1.59,3.92-3.18,5.87-4.78.34.03,1,.1,1.34.13l.22-.86c1.13-.49,2.28-.98,3.43-1.47,1.28-.56,2.59-1.09,3.89-1.64,4.27-1.12,8.6-2.28,13.07-2.08,52.68-.06,105.36,0,158.03-.02,3.37-.1,6.86.39,10.14-.65,1.58-.37,3.19-.7,4.78-1.14,5.27-2.32,9.66-6.48,12.02-11.76.72-2.01,1.43-4.03,2.25-6.01.14-1.88.26-3.77.34-5.65.18.04.56.12.75.16-.01-3.28-.01-6.56-.05-9.84l-.73.02c-.07-1.62-.18-3.25-.27-4.86-.45-1.23-.89-2.46-1.29-3.7-.41-1.04-.86-2.07-1.32-3.08-.12-.47-.38-1.42-.51-1.89-.72-.82-1.41-1.64-2.08-2.48l-.25-.11c-.61-.83-1.2-1.66-1.79-2.49-.32-.19-.96-.57-1.28-.76-1.82-1.57-3.79-3.07-6.27-3.32,0-.27-.05-.8-.07-1.07-1.53-.15-3.06-.31-4.56-.49-1.24-.39-2.51-.8-3.81-.76-69.2-.04-138.41.04-207.61-.05-.04-6.44-.09-12.89.06-19.33,70.52-.06,141.05-.01,211.57-.03Z"/>
  <path class="cls-1" d="m970.34,70.97l-.04-.63c39.86.17,79.73,0,119.59.08.8.23,2.4.67,3.2.9-.12,6.29.02,12.58-.09,18.87-32.71.2-65.42-.02-98.13.11-5.33.23-10.77-.63-16,.69-3.26.52-6.32,1.76-9.2,3.32-3.57,2.64-6.38,6.16-8.22,10.2-.59,1.77-1.18,3.54-1.88,5.27-.16,1.33-.28,2.66-.4,4-.98,3.21-.75,6.59-.78,9.9.03,26.97-.01,53.94.02,80.91-.06,4.63-.02,9.3-1.07,13.84l-.61-.2c-.14,1.46-.28,2.93-.4,4.4-3,9-8.16,17.4-15.99,22.95l-.1.68c-.42-.03-1.25-.1-1.66-.13l-.06.89c-1.6.82-3.16,1.69-4.71,2.58-.95.38-1.88.78-2.8,1.18-1.54.64-3.14,1.16-4.72,1.6l.14.46c-13.98,3.4-28.42,2.16-42.66,2.38-35.07-.11-70.15.21-105.22-.16-.09-6.31.02-12.62-.07-18.93l1.04.22-.18-1.07c38.51-.07,77.02,0,115.53-.04,3.49.15,6.84-.93,10.1-2.09,2.11-1.24,4.09-2.69,6.02-4.22,2.51-2.62,4.27-5.81,5.66-9.14,2.31-5.79,1.89-12.03,2.05-18.12.34-2.32.35-4.67.31-7-.98-6.32,0-12.7,0-19.04-.4-3.32-.29-6.65.04-9.97-.73-3.3-.19-6.67-.3-10.01.26-2.31.31-4.65.26-6.97-.97-7.99.34-16.02-.11-24.02-.4-2.32-.38-4.68.1-6.98.16-2.7.19-5.44.93-8.06.19-1.48.37-2.96.55-4.44l.58.03c.26-1.51.57-3.02,1.01-4.49,1.13-2.8,2.42-5.53,3.85-8.2,1.26-1.98,2.69-3.85,4.25-5.62.29-.26.88-.79,1.17-1.06l-.21-.4c.93-.83,1.87-1.67,2.84-2.48,2.83-2.41,5.77-4.73,9.22-6.19l.18-.37c2.29-.89,4.57-1.82,6.95-2.51,0-.16.03-.48.04-.65,1.01-.04,3.03-.12,4.04-.16l-.2-.73c1.56-.19,3.12-.39,4.7-.59,3.76-.75,7.61-.8,11.44-.79Z"/>
  <path class="cls-1" d="m1317.95,71.61c2.29-.35,4.6-.67,6.88-1.22,1.35.46,2.75.79,4.2.98,1.59.69,3.13,1.52,4.59,2.51.24.25.72.76.96,1.01.87,1.12,1.75,2.27,2.61,3.43.44,1.61.93,3.2,1.39,4.83.14,0,.42.03.56.04.49,44.03,0,88.06.25,132.09,13.01.21,26.02.07,39.03.09-.06.42-.16,1.25-.22,1.67l1.03.04c-.06,6.03-.02,12.06-.08,18.09-13.23.36-26.46-.09-39.69.24-.23,6.58,0,13.16-.17,19.74-12.95.19-25.9-.02-38.84.1-.24-.36-.72-1.08-.95-1.44.11-6.14.25-12.3-.13-18.44-69.49-.18-138.97,0-208.46-.09-3.52-.01-7.12-.14-10.24-1.94l-.94.03c-1.91-1.47-3.32-3.41-4.5-5.47.07-1.77.19-3.54.38-5.3.99-1.39,2-2.76,3.03-4.13,1.73-1.58,3.48-3.15,5.29-4.65,3.34-1.94,6.61-4.02,9.96-5.96,1.32-.88,2.63-1.8,3.93-2.74.33.04,1,.11,1.33.15l.07-.84c2.64-1.55,5.23-3.2,7.91-4.68l.13-.71,1.18.24.06-1.2c.35.04,1.07.11,1.42.15.46-.39,1.38-1.17,1.84-1.56,1.14-.61,2.32-1.21,3.51-1.79l.07-.87c.43.06,1.29.18,1.72.24l.09-.85c1.95-1.13,3.87-2.31,5.8-3.49,1.13-.71,2.31-1.41,3.49-2.07l.07-.29c1.77-.97,3.52-2,5.27-3.04.44-.3,1.33-.88,1.78-1.17,1.41-.83,2.81-1.68,4.22-2.53,2.38-1.4,4.7-2.9,7.1-4.3,1.7-1.04,3.39-2.13,5-3.32.23-.02.67-.05.89-.07,1.63-1.36,3.44-2.48,5.35-3.44l.11-.31c3-1.69,5.94-3.49,8.84-5.36,2-1.2,4.01-2.4,5.91-3.77h.93c.48-.42,1.43-1.26,1.9-1.68,1.3-.75,2.56-1.52,3.87-2.29,2.37-1.48,4.74-2.96,7.16-4.39,1.15-.7,2.33-1.41,3.53-2.08l.03-.81c.47.07,1.42.23,1.9.3l-.06-.89c1.63-.87,3.25-1.75,4.91-2.6l.02-.36c2.32-1.29,4.58-2.68,6.75-4.23.33,0,.97-.02,1.3-.02l.03-.7c1.21-.76,2.46-1.53,3.67-2.33h.79c.42-.32,1.27-.98,1.69-1.32l.13-.67c.32.02.95.05,1.26.06,1.04-.81,2.14-1.61,3.25-2.37,2.01-1.12,4.01-2.29,5.82-3.75.3.03.92.07,1.23.1l.14-.71c4.3-2.4,8.34-5.23,12.61-7.68,2.31-1.43,4.61-2.9,6.92-4.38,3.46-1.96,6.97-3.88,10.11-6.35.22,0,.66-.01.88-.02,1.58-1.21,3.26-2.29,4.97-3.33,2.45-1.46,4.87-2.95,7.21-4.6l1.18.11c.04-.2.12-.6.16-.81.41-.33,1.22-.99,1.63-1.32l.81.06c1.63-1.24,3.37-2.32,5.16-3.33,1.04-.66,2.11-1.32,3.17-1.98.8-.51,1.61-1.02,2.44-1.52,2.25-1.26,4.45-2.62,6.47-4.23.22.03.66.1.89.13,1.55-1.44,3.36-2.56,5.26-3.5l.12-.34c.91-.5,1.83-1,2.76-1.5,2.03-1.32,4.11-2.6,6.24-3.79.86-.68,1.74-1.35,2.64-2.03.33.02,1,.06,1.34.08l.11-1.04,1.12.12.09-1.12c.43.05,1.3.15,1.73.2l.08-.88c2.49-1.25,4.97-2.54,7.55-3.64,1-.41,2.02-.8,3.07-1.2Zm-30.47,40.75c-4.48,2.85-9.13,5.42-13.47,8.48-1.02.54-2.06,1.09-3.05,1.64-1.32.83-2.63,1.65-3.92,2.49-1.5.87-2.97,1.76-4.46,2.61l-.19.7-.81-.14c-.48.32-1.45.97-1.94,1.29-1.33.88-2.64,1.79-3.89,2.75-.32-.05-.95-.16-1.27-.21l-.11.83c-1.17.68-2.33,1.39-3.45,2.12-1.49.87-2.96,1.75-4.44,2.59l-.11.34c-1.77.98-3.49,2.01-5.22,3.03-1.12.76-2.25,1.54-3.31,2.34-.35-.04-1.04-.12-1.38-.16l-.03,1.19-1.17-.16-.02,1.17c-.45-.05-1.33-.15-1.77-.2l-.21,1.24c-.32,0-.97-.02-1.3-.02-3.07,2.31-6.4,4.24-9.71,6.15l-.15.28c-1.79.98-3.53,2.04-5.24,3.13-6.3,3.92-12.64,7.8-18.96,11.7-1.14.71-2.26,1.39-3.42,2.02l-.06.31c-2.64,1.45-5.2,3.03-7.81,4.5-1.29.9-2.56,1.81-3.8,2.74-.23.03-.7.09-.93.12-.6.36-1.79,1.08-2.39,1.44l.02.35c-1.16.61-2.28,1.23-3.4,1.87-2.84,1.86-5.75,3.61-8.65,5.38-2.91,1.87-5.82,3.76-8.91,5.32l-.02.42c-1.06.47-2.1.95-3.12,1.43l-.07.4c-2.08,1.18-4.11,2.44-6.21,3.56l-.1.75c-.31,0-.94-.01-1.26-.02-2.83,2.13-5.87,3.96-8.91,5.76-.46.31-1.39.93-1.86,1.25l-.82-.16-.02,1.21c-.42-.03-1.27-.1-1.7-.13l-.1.82c-1.06.5-2.11,1.01-3.14,1.52l-.1.87c-.42-.06-1.27-.16-1.69-.22l.02.89c-1.05.47-2.1.93-3.12,1.4l-.05.56c-1.01.51-2,1.01-2.98,1.51-.03.46-.09,1.38-.12,1.84,2.52.12,5.04.18,7.58.16,56.27-.09,112.53.06,168.79-.08.22-26.24.03-52.49.09-78.73-.21-10.2.47-20.44-.41-30.6-4.43,1.08-7.78,4.35-11.75,6.36Z"/>
  <path class="cls-1" d="m129.35,169.11c.78-.01,2.33-.03,3.11-.04-.06,12.2.12,24.41-.12,36.61-2.23.54-4.42,1.26-6.5,2.24-.57.1-1.69.3-2.25.4-1.09.55-2.19,1.09-3.28,1.63-.41.08-1.23.23-1.64.31-4.22,1.71-8.61,2.95-12.78,4.78-.65.07-1.97.21-2.62.28v.61c-1.52.46-3.01.99-4.5,1.52-1.18.36-2.36.7-3.55,1l.16.49c-1.17.29-2.32.6-3.47.94-1.57.54-3.13,1.06-4.72,1.52l.08.65c-.64.06-1.93.19-2.57.26-1.72.83-3.52,1.5-5.37,1.98l-.05.49c-4.73.98-9.14,3.04-13.7,4.57-1.31.67-2.61,1.34-3.92,2-1.07.74-2.12,1.49-3.19,2.23-.49,1.5-.96,3.01-1.34,4.55l.9-.06c.34.36,1.02,1.09,1.35,1.45l-.12.45c1.19.48,2.37.99,3.55,1.51,1.51.4,3.05.68,4.6.95l-.27.57c7.42.5,14.87.37,22.3,0l-.26-.71c4.36.07,8.52-1.33,12.52-2.92.56-.11,1.67-.34,2.23-.45,1.2-.55,2.41-1.09,3.62-1.61,1.49-.47,2.96-.98,4.46-1.44,1.26-.52,2.54-1.01,3.82-1.51,1.37-.46,2.74-.93,4.12-1.37,2.19-.81,4.37-1.65,6.49-2.64.48-.01,1.44-.03,1.92-.04l-.03-.98c1.37-.13,2.75-.25,4.12-.39.02,10.75-.06,21.51.06,32.26-2.67.56-5.36,1.02-8.08,1.24v.58c-3.37.05-6.72.28-10.07.44l.32.71c-3.96.12-7.95-.02-11.86.65-6.66.21-13.4.6-20.02-.3-3.88-.2-7.76-.32-11.64-.43l.18-.72c-2.95-.15-5.89-.31-8.84-.41-.33-1.2-1.13-2.73-1.84-.91-.8-.02-2.39-.05-3.18-.06l-.47-.44c-1.76-.21-3.52-.41-5.2-.98-1.72-.31-3.46-.51-5.1-1.11-1.27-.26-2.55-.49-3.83-.7-1.34-.45-2.69-.89-4.01-1.37-1.19-.13-2.38-.26-3.57-.37l.09-.59c-3.25-.66-6.38-1.78-9.51-2.86-1.7-.51-3.38-1.09-5.08-1.64-1-.52-1.99-1.06-2.97-1.61-.28,0-.82-.03-1.09-.04-.51-.31-1.54-.95-2.06-1.27-1.7-.93-3.39-1.9-5.05-2.9-1.68-1.41-3.32-2.87-4.96-4.33-1.06-1.34-2.12-2.69-3.16-4.04-1.97-4.46-2-9.81-.16-14.31,2.24-2.87,4.83-5.45,7.87-7.48,1.72-1.09,3.47-2.12,5.28-3.04l-.02-.8c.45.06,1.34.18,1.79.23l.17-.81c2.13-.93,4.2-1.96,6.27-3.02,1.67-.71,3.31-1.46,4.94-2.24,1.09-.44,2.18-.87,3.27-1.28,2.72-1.23,5.54-2.25,8.41-3.06l-.07-.67c.69-.04,2.08-.13,2.77-.17,1.06-.56,2.14-1.11,3.23-1.64.43-.11,1.31-.32,1.75-.43,1.01-.37,2.03-.72,3.05-1.06,3.18-1.22,6.42-2.29,9.61-3.48,1.07-.35,2.13-.71,3.19-1.07,1.64-.61,3.28-1.22,4.87-1.95.58-.12,1.74-.36,2.32-.47,3.15-1.39,6.44-2.42,9.66-3.64,2.69-.91,5.39-1.84,7.99-3.01.54-.09,1.63-.27,2.17-.36,1.64-.75,3.3-1.43,4.98-2.07,1.19-.33,2.39-.64,3.6-.94l-.11-.48c2.64-.56,5.16-1.56,7.7-2.46,1.58-.6,3.19-1.15,4.77-1.77,2.4-.83,4.79-1.69,7.22-2.43,1.24-.49,2.49-.95,3.74-1.43,1.32-.45,2.65-.91,3.97-1.38,1.23-.41,2.47-.78,3.72-1.11l-.11-.79Z"/>
  <path class="cls-1" d="m282.4,184.98l-.17-.68c5.22.2,10.45-.14,15.67.15,4.61.76,9.3.67,13.95,1.08,1.93.35,3.88.47,5.84.61l-.3.67c2.81.1,5.62.23,8.43.45,3.6,1.16,7.46,1.22,11.03,2.54,1.47.2,2.95.38,4.43.56l-.06.61c3.48.26,6.72,1.66,10.09,2.46l-.02.38c4.27.83,8.23,2.74,12.38,4.03,1.12.5,2.25,1.02,3.39,1.55,1.31.56,2.63,1.13,3.93,1.77.32-.04.98-.13,1.3-.17l.13,1.34c.36-.03,1.1-.1,1.47-.13,2.05,1.55,4.18,3,6.12,4.71.29.03.88.09,1.17.12v1.18s.77.04.77.04c.59.8,1.2,1.6,1.81,2.4.42.46,1.25,1.39,1.67,1.86,0,.25.02.76.02,1.02.59.9,1.18,1.82,1.77,2.74.16,3.5.22,7.13-1.58,10.27-.51.78-1.01,1.57-1.51,2.36-.28.32-.84.96-1.12,1.29l-.28.02c-.27.34-.81,1.02-1.08,1.36-4.69,4.22-10.15,7.42-15.75,10.26-2.7,1.29-5.4,2.55-8.22,3.54-.99.35-1.99.7-2.98,1.04-6.89,2.67-13.93,4.96-20.84,7.55-1.66.59-3.31,1.17-4.98,1.73-1.01.39-2.01.81-3.01,1.24-.57.15-1.71.44-2.28.59-1.59.67-3.2,1.26-4.82,1.83-1.06.37-2.12.73-3.17,1.09-3.22,1.25-6.48,2.36-9.71,3.57-1.38.45-2.74.94-4.1,1.42-1.3.49-2.6.97-3.88,1.48-1.04.34-2.07.68-3.1,1.04-1.67.6-3.32,1.23-4.92,1.99-.56.09-1.67.28-2.22.38-1.62.72-3.25,1.39-4.9,2.03-1.18.37-2.37.72-3.56,1.05l.05.43c-5.9,1.47-11.47,3.99-17.23,5.89-1.08.37-2.14.76-3.19,1.17-2.38.78-4.72,1.69-7.08,2.51-2.68,1-5.37,1.97-8.06,2.93-1.03.36-2.05.72-3.08,1.06-2.23.81-4.46,1.61-6.67,2.45-4.79,1.54-9.36,3.86-14.35,4.7.1-11.81-.02-23.62.06-35.42.92-1.84,3.44-1.79,5.1-2.71,2.4-.74,4.74-1.63,7.12-2.45,2.08-.75,4.17-1.49,6.27-2.21,1.75-.66,3.51-1.29,5.32-1.78l-.09-.7c1.31-.11,2.63-.2,3.96-.29v-.66c2.52-.76,5-1.7,7.51-2.55,1.66-.62,3.32-1.21,5-1.79,1-.4,2-.78,3.02-1.15,1.03-.35,2.07-.69,3.11-1,1.6-.65,3.21-1.26,4.85-1.83,4.28-1.45,8.54-2.98,12.78-4.57,1.07-.38,2.13-.76,3.2-1.15.36-.07,1.08-.2,1.44-.27,1.14-.54,2.29-1.1,3.43-1.65.56-.1,1.66-.28,2.21-.37,4.67-1.96,9.49-3.52,14.26-5.22.78-.23,2.33-.69,3.1-.92l-.06-.48c1.2-.28,2.39-.58,3.58-.91,2.49-.98,5-1.91,7.58-2.62l-.03-.39c1.72-.39,3.26-1.24,4.72-2.2l.85.08c.28-.39.85-1.19,1.13-1.59.36-.2,1.1-.59,1.47-.79,1.42-2.73.25-5.4-2.38-6.72-1.11-.41-2.2-.85-3.29-1.28-2.08-.93-4.38-.83-6.6-.93l.16-.65c-5.13.05-10.39-.75-15.4.63-2.02.11-4.04.21-6.04.36-2.68.9-5.44,1.45-8.12,2.29-2.7.92-5.38,1.87-8.07,2.77-1.33.51-2.64,1.03-3.93,1.62-.5.07-1.52.21-2.03.29-1.66.75-3.34,1.43-5.06,2.02-2.72,1-5.45,2.02-8.34,2.37-.01.23-.03.71-.05.94-1.53.33-3.05.68-4.55,1.14-.96.35-1.91.72-2.85,1.09-1.73.59-3.44,1.2-5.15,1.82-1.3.42-2.58.86-3.85,1.35-2.71.94-5.44,1.84-8.09,2.94-.49.1-1.47.32-1.96.42-1.69.74-3.4,1.43-5.14,2.04-1.01.32-2.03.64-3.04.94-2.28,1.01-4.65,1.81-7.1,2.25.01-11.33.08-22.67-.02-34-.1-1.49.24-2.92.73-4.31,2.26-.29,4.43-1.01,6.51-1.92.69-.13,2.09-.38,2.78-.51,3.61-1.38,7.38-2.3,11.16-3.09,1.62-.55,3.32-.81,5.03-1.02,1.63-.45,3.27-.86,4.9-1.36,1.88-.16,3.78-.31,5.68-.44l-.13-.71c3-.15,6.01-.34,9.02-.43l-.23-.69c5.77-.58,11.55-1.29,17.36-1.19Z"/>
  <path class="cls-1" d="m1432.77,234.37c1.15-.09,2.33-.16,3.53-.24,1.7,6.49.25,13.32.83,19.95-.26.01-.79.02-1.05.03l.38,1.39-1.18-.74c-.13.51-.37,1.53-.5,2.04-1.1-4.83-.64-9.81-.5-14.71-.44,0-1.31.03-1.74.04-.76,2.85-1.62,5.66-2.61,8.43-.51,1.43-.81,2.92-1.07,4.42-1.11.08-2.2.17-3.25.26-1.67-5.21-3.5-10.36-5.11-15.59-.45,5.11-.28,10.25-.25,15.37-.74.04-2.21.13-2.94.17-.05-6.77,0-13.53-.02-20.3,1.33-.02,2.62-.05,4-.06.42,1.48.85,2.96,1.25,4.47l.45-.07c.75,3.2,1.82,6.32,2.95,9.42.29,1.09.63,2.21.96,3.32,1.95-5.87,4.2-11.64,5.87-17.6Z"/>
  <path class="cls-1" d="m1398.47,234.23c5.34.11,10.69.06,16.04.02-.07.91-.11,1.84-.14,2.76-2.11-.04-4.19-.06-6.27-.09-.02,5.62-.06,11.24.04,16.86-.53.94-1.04,1.88-1.52,2.83-.02-.41-.07-1.23-.09-1.63-.31.06-.94.19-1.26.25-.08-6.12.02-12.24-.03-18.36-2.03.05-4.05.1-6.03.18l.13-.94-1.21.21.34-2.09Z"/>
  <path class="cls-1" d="m358.8,269.74c3.71-1.22,7.69-.83,11.33.44,3.49,1.89,6.17,4.86,7.79,8.48.79,2.96.69,6.06.34,9.09-.47,1.13-.9,2.29-1.29,3.46l-.25-.04c-1.49,2.41-3.62,4.29-5.84,5.99-.23.03-.7.08-.93.11-3.78,1.62-8.5,1.65-12.26-.04-.23,0-.7,0-.93,0-2.32-1.8-4.45-3.85-6.12-6.28-.39-1.08-.81-2.14-1.26-3.18-.29-3.06-.61-6.25.54-9.17.52-1.07,1.02-2.15,1.51-3.23,1.27-1.45,2.64-2.8,4.1-4.05,1.08-.52,2.18-1.04,3.27-1.57Zm3.82,1.59c-1.77.63-3.53,1.23-5.29,1.85-4,2.91-6.35,7.74-5.8,12.7.5,1.23.98,2.48,1.49,3.72.67.93,1.33,1.85,2.01,2.79.26.26.79.8,1.05,1.06,1.56,1.1,3.3,1.9,5.24,2.05l.04.57c1.47-.03,2.95-.05,4.44-.05,1.81-.69,3.62-1.4,5.44-2.1l.02-.44c4.4-3.51,5.97-9.75,3.71-14.92-2.43-4.56-7.19-7.3-12.35-7.23Z"/>
  <path class="cls-1" d="m357.48,275.31c3.19-.09,6.4-.09,9.6-.05,1.14.66,2.25,1.35,3.38,2.06-.34,2.13.88,5.38-1.78,6.34,2.96,1.18,1.12,5.41,1.99,7.9-.79-.08-2.38-.24-3.18-.32-.04-2.01-.09-4-.16-6-2.31-.1-4.62-.15-6.92-.17-.03,2.45-.04,4.91-.17,7.37-.94-.45-2.12-.56-2.74-1.47-.14-5.22,0-10.44-.02-15.66Zm2.9,2.71v4.39c2.34-.02,4.68-.09,7.02-.23,0-1.33.02-2.66.04-3.98-2.36-.12-4.71-.17-7.06-.18Z"/>
</svg>